<?xml version="1.0" encoding="UTF-8" standalone="no"?>
<!-- Created with Inkscape (http://www.inkscape.org/) -->
<svg
   xmlns:dc="http://purl.org/dc/elements/1.1/"
   xmlns:cc="http://creativecommons.org/ns#"
   xmlns:rdf="http://www.w3.org/1999/02/22-rdf-syntax-ns#"
   xmlns:svg="http://www.w3.org/2000/svg"
   xmlns="http://www.w3.org/2000/svg"
   xmlns:sodipodi="http://sodipodi.sourceforge.net/DTD/sodipodi-0.dtd"
   xmlns:inkscape="http://www.inkscape.org/namespaces/inkscape"
   id="svg2548"
   sodipodi:version="0.32"
   inkscape:version="0.46dev+devel"
   width="443"
   height="592"
   version="1.0"
   sodipodi:docname="RockNRollGuitarist.svg"
   inkscape:output_extension="org.inkscape.output.svg.inkscape">
  <metadata
     id="metadata2553">
    <rdf:RDF>
      <cc:Work
         rdf:about="">
        <dc:format>image/svg+xml</dc:format>
        <dc:type
           rdf:resource="http://purl.org/dc/dcmitype/StillImage" />
      </cc:Work>
    </rdf:RDF>
  </metadata>
  <defs
     id="defs2551" />
  <sodipodi:namedview
     inkscape:window-height="968"
     inkscape:window-width="1280"
     inkscape:pageshadow="2"
     inkscape:pageopacity="0.0"
     guidetolerance="10.0"
     gridtolerance="10.0"
     objecttolerance="10.0"
     borderopacity="1.0"
     bordercolor="#666666"
     pagecolor="#ffffff"
     id="base"
     showgrid="false"
     inkscape:zoom="1"
     inkscape:cx="176.30892"
     inkscape:cy="318.11696"
     inkscape:window-x="0"
     inkscape:window-y="27"
     inkscape:current-layer="svg2548" />
  <path
     style="fill:#000000"
     d="M 221.28125,0 L 218.15625,3 C 215.7754,5.2752626 214.08996,6 211.15625,6 C 208.84323,6 204.9288,7.2136913 201.40625,9 C 198.16624,10.643032 195.03118,11.993032 194.46875,12 C 192.89022,12.019553 191,21.763287 191,29.84375 C 191,35.477306 190.52173,37.959432 188.84375,40.875 L 186.65625,44.625 L 188.9375,47.6875 C 193.04161,53.238603 184.29953,59.942696 176.59375,57.15625 C 174.8153,56.513156 169.34845,55.980451 164.4375,55.96875 C 153.80029,55.943405 132.6493,53.650178 128.6875,52.09375 C 118.58801,48.126094 106.59307,51.488193 101.96875,59.5625 C 99.188909,64.416267 93.369099,71.61185 87.90625,76.96875 C 86.485224,78.362217 84.823737,80.464689 84.1875,81.65625 C 83.499941,82.943924 80.913795,84.542791 77.84375,85.5625 C 71.831282,87.559522 64.691612,92.520976 63.125,95.78125 C 62.508055,97.065172 60.783796,98.299487 59.15625,98.625 C 57.272545,99.001741 54.999175,100.85553 52.625,103.96875 C 48.084377,109.92281 40.650015,112.86871 27.5,113.9375 C 14.909949,114.96077 9,119.46207 9,128.0625 C 9,129.1751 8.2593155,131.5523 7.34375,133.3125 C 6.1461846,135.61484 5.5463125,140.00745 5.21875,149 L 4.75,161.5 L 10.53125,166.5 C 13.705679,169.25 17.886422,172.85 19.8125,174.5 C 21.738579,176.15 25.031294,179.1875 27.125,181.25 C 29.218706,183.3125 31.378399,185 31.9375,185 C 32.496601,185 33.692815,186.125 34.59375,187.5 C 36.434782,190.30977 34.524115,195 31.53125,195 C 29.052732,195 25.008211,200.26451 25,203.5 C 24.995798,205.15562 24.091597,209.425 23,213 C 21.908403,216.575 21.004202,220.72096 21,222.21875 C 20.995799,223.71654 20.137826,226.86654 19.09375,229.21875 C 18.049673,231.57096 16.224957,237.775 15.03125,243 C 12.094524,255.8544 11.438018,257.39242 5.1875,265.75 C -0.35634383,273.16268 -0.72260142,275.9883 3.875,276 C 7.5048854,276.00922 24.632064,288.3718 28.125,293.5 C 29.510449,295.53406 30.207514,296.54813 31.0625,296.4375 L 34.8125,301.625 C 35.242574,302.47257 35.80045,303.42143 36.46875,304.53125 C 38.439019,307.80321 41.213319,311.07284 42.625,311.8125 C 44.28836,312.68403 46.337848,315.6979 48.46875,320.34375 C 52.264687,328.61976 56.48446,334.24509 62.03125,338.5 C 64.182227,340.15 68.087819,344.24785 70.71875,347.625 C 73.34968,351.00217 79.4375,356.99438 84.25,360.9375 C 89.0625,364.88063 93,368.46293 93,368.875 C 93,369.28706 94.600743,372.27341 96.5625,375.53125 C 98.52426,378.78908 101.68794,385.09496 103.59375,389.53125 C 107.23169,397.99953 112.60876,406.31533 115.90625,408.625 C 116.97987,409.37699 118.34322,411.48054 118.9375,413.28125 C 119.67057,415.50248 121.96178,417.99101 126.09375,421 C 136.87091,428.84812 139.02405,434.58878 132.90625,439.1875 C 125.40071,444.82937 124,446.6667 124,450.96875 C 124,455.65259 121.85472,460.4766 119.125,461.9375 C 118.10946,462.48099 115.57062,464.40844 113.46875,466.21875 C 104.38999,474.03811 101.36774,477.59352 100.09375,482 C 97.654976,490.43519 97.344173,490.80464 89,495 C 84.556769,497.23401 80.756637,499.6121 80.5625,500.28125 C 80.36836,500.95039 79.205238,505.325 78,510 C 73.784132,526.35293 70.122087,532 63.71875,532 C 61.414391,532 54.38862,535.55633 50.5,538.6875 C 48.85,540.01608 45.475,542.71994 43,544.6875 C 40.525,546.65509 37.585098,549.88361 36.46875,551.875 C 35.141125,554.24331 33.238628,555.90266 30.96875,556.6875 C 29.060098,557.34744 25.25,558.73521 22.5,559.75 L 17.5,561.59375 L 17.21875,570.78125 C 17.035186,576.65797 17.306366,580 17.96875,580 C 20.429693,580 23,584.09182 23,588 L 23,592 C 23,592 109.94638,592 109.94638,592 C 109.39656,590.97266 106.75949,588.00815 105.15625,587.6875 C 95.851699,585.82659 97.218951,576.92425 107,575.6875 C 110.49304,575.24584 112.05942,574.40015 114,571.9375 C 115.375,570.19259 118.57356,566.66477 121.09375,564.0625 C 123.61393,561.46024 125.96228,558.5689 126.3125,557.65625 C 127.51227,554.52971 133.49862,547.18949 136.15625,545.59375 C 137.61744,544.71639 140.09244,542.08939 141.65625,539.75 C 147.51752,530.98181 154.63626,521.52879 159.125,516.59375 C 161.67581,513.78931 164.60081,509.85623 165.625,507.84375 C 168.49517,502.20404 175.1505,492.14112 178.71875,488.03125 C 182.78558,483.34712 188,473.49129 188,470.5 C 188,468.393 194.83691,461 196.78125,461 C 198.9437,461 202,464.37104 202,466.75 C 202,468.19587 202.84013,470.30205 203.875,471.4375 C 206.36149,474.16564 212.3426,485.4661 213.96875,490.5 C 214.67943,492.7 216.50475,496.975 218,500 C 219.49525,503.025 221.00228,506.625 221.34375,508 C 221.68523,509.375 223.19356,511.85 224.71875,513.5 C 230.45706,519.70791 238.26067,531.47977 239.59375,535.96875 C 241.39559,542.03619 248.16519,549.60881 250.71875,548.40625 C 254.34919,546.69653 272.13174,546.75251 277.6875,548.5 C 284.44993,550.62704 286.69167,554.08726 288,564.40625 C 289.23841,574.17385 290.07766,575.75115 300.0625,586.71875 C 301.67629,588.49138 303,590.40389 303,590.96875 C 303,592.6483 329.57289,592.30799 332.28125,590.59375 C 333.4994,589.82274 336.075,588.86398 338,588.46875 C 346.93348,586.63459 377.89691,570.22617 377.96875,567.28125 C 378.05868,563.59537 372.44435,559.9385 363,557.5625 C 342.61488,552.43399 322.87602,539.59879 317.90625,528.21875 C 316.0272,523.91602 311.72775,521 307.21875,521 C 304.52349,521 298.22538,516.00978 295.6875,511.84375 C 292.05179,505.8756 287.77205,499.6158 286.28125,498.125 C 285.50811,497.35187 283.84873,494.6641 282.59375,492.125 C 272.12272,470.93964 261.32951,451.01768 257.78125,446.375 C 251.54657,438.21731 252.17439,439.82717 242.90625,409.5 C 241.72967,405.65 239.70092,400.64238 238.40625,398.375 C 237.11157,396.10763 234.93019,390.29621 233.53125,385.46875 C 232.1323,380.64128 229.99544,375.07392 228.78125,373.09375 C 224.22287,365.65973 217.63385,357.78716 214.125,355.5625 C 209.71546,352.7668 201.16977,343.30476 200.40625,340.375 C 200.10173,339.20651 198.8827,337.7996 197.6875,337.25 C 196.49231,336.70042 193.7,333.8945 191.5,331.03125 C 189.3,328.168 186.11437,324.17492 184.40625,322.15625 C 179.85579,316.77849 179.34317,315.48423 176.5625,302.0625 C 172.78093,283.80966 176.55276,280.7187 192.90625,288.75 C 203.03036,293.72201 219.68247,292.4006 226.15625,286.09375 C 227.61597,284.67166 230.89813,281.7 233.46875,279.5 C 236.03937,277.3 238.73126,274.15 239.4375,272.5 C 242.06201,266.36829 243.45913,265.86378 255.59375,266.8125 C 267.922,267.77636 268.08791,267.74729 270.53125,261.25 C 275.72318,247.44366 281.18917,241.39031 287.4375,242.5625 C 290.13804,243.06912 290.94025,242.75056 292.3125,240.65625 C 294.20574,237.7668 297.56876,236.40641 299.3125,237.8125 C 301.39941,239.49534 315.24121,244.82138 321.875,246.5 C 329.08386,248.32415 331,248.01105 331,244.9375 C 331,243.48114 331.45077,242.96511 332.4375,243.34375 C 333.31376,243.68001 334.12631,243.11487 334.5,241.9375 C 335.28519,239.46359 338.64456,238.65023 345.5,239.21875 L 350.9375,239.65625 L 352.03125,234.34375 C 352.63968,231.41299 353.77137,228.38489 354.53125,227.625 C 355.29114,226.86511 355.62173,225.96547 355.28125,225.625 C 354.94078,225.28452 355.08958,225.00415 355.59375,225 C 356.09792,224.99584 359.2,224.57823 362.5,224.0625 C 365.8,223.54677 374.3665,222.83124 381.53125,222.5 L 394.5625,221.90625 L 396.8125,224.9375 C 398.61578,227.37656 399.8039,227.98776 402.78125,228 C 408.26692,228.02258 409.41329,229.12133 408.6875,233.59375 C 407.98232,237.9393 409.20025,240.02157 412.03125,239.28125 C 414.36867,238.67001 414.53511,237.08684 412.53125,234.4375 C 409.39987,230.29744 410.52955,227.66069 415.15625,228.28125 C 420.13413,228.94893 421.1909,230.36008 420.4375,235.09375 C 419.71845,239.61168 421.88862,241.9864 424.40625,239.46875 C 426.4047,237.4703 426.4172,236.26095 424.5,234.34375 C 421.17135,231.0151 423.83568,227.62964 428.96875,228.65625 L 432.25,229.3125 L 431.625,234.59375 C 430.94381,240.3896 431.59282,241.39461 435.40625,240.4375 C 437.32178,239.95673 437.70143,239.42656 437.0625,238.15625 C 433.3513,230.7776 433.26049,228.01193 436.71875,227.96875 C 437.69851,227.95652 439.57568,227.12426 440.875,226.125 L 443.21875,224.3125 L 440.96875,218.1875 C 438.85048,212.37794 432.26994,205 429.1875,205 C 428.03202,205 427,202.58909 427,199.90625 C 427,198.80896 426.29673,198 425.375,198 C 424.0638,198 423.91397,198.66779 424.46875,201.625 C 425.05388,204.74402 424.91808,205.16917 423.5,204.625 C 422.59126,204.27628 420.49461,204 418.84375,204 C 416.87014,204 415.98652,203.57192 416.28125,202.75 C 416.85823,201.14086 415.24401,198 413.84375,198 C 413.21444,198 412.96177,199.24919 413.21875,201 C 413.69184,204.22337 413.30274,204.39804 408.1875,203.375 C 406.11255,202.96001 405.01835,202.10925 404.8125,200.71875 C 404.3409,197.53303 402.17705,197.5084 401.8125,200.6875 C 401.50694,203.35221 401.19121,203.52199 395.5,204 C 392.2,204.27717 389.05751,204.7938 388.5,205.15625 C 387.9425,205.5187 377.84819,206.10107 366.09375,206.4375 C 354.33932,206.77393 344.31224,207.31613 343.8125,207.625 C 342.47241,208.45321 338.24302,205.37229 337.5,203.03125 C 336.68234,200.45505 335.53169,200.4683 332.90625,203.09375 C 331.45736,204.54264 330.15019,204.99164 328.65625,204.53125 C 326.2844,203.80032 326.19013,203.79077 320.59375,204.46875 C 318.45208,204.7282 316.0387,204.55263 315.21875,204.09375 C 314.15764,203.49993 312.59471,204.40529 309.8125,207.1875 C 306.49744,210.50256 305.28586,211.07482 301.71875,211.0625 C 299.40535,211.05452 292.325,211.22202 286,211.4375 C 244.70977,212.84418 236.94771,212.64378 234.90625,210.125 C 232.29902,206.90815 232.46274,206.00618 236.5,200.71875 L 240,196.125 L 240,182.21875 C 240,168.53671 240.06169,168.24238 242.84375,164.40625 C 245.71233,160.45079 252.47312,154.01156 253.78125,154 C 256.07572,153.97971 258,147.37641 258,139.53125 C 258,127.34053 257.43874,125.6796 251.09375,119.09375 C 245.57146,113.36183 241.06299,106.59327 242.09375,105.5625 C 242.37741,105.27883 245.04723,105.97179 248,107.09375 C 256.25332,110.22977 264,104.94222 264,96.1875 C 264,92.615692 267.77922,88.108048 275.9375,81.96875 C 279.23462,79.48758 279.26627,79.367136 278.03125,75.625 C 275.83528,68.971159 277.11389,59.32409 280.96875,53.25 C 287.31632,43.248118 283.47036,29.162148 271.09375,17 C 266.89601,12.875 262.4264,8.0457987 261.15625,6.25 C 257.16877,0.61232657 254.85923,0 237.1875,0 L 221.28125,0 z"
     id="path2561"
     sodipodi:nodetypes="ccsssscccssssssssssssscccsssssssssssssccssssssssssssssssssssssssscccscccssssssssssssssssssssssssssssssssssssssssssssssssssssssssscccsssscccsssssssscccssscccssssssssssssssssssssssssscccsssssssssssscc" />
  <path
     style="opacity:1;fill:#ffffff;fill-opacity:1;fill-rule:nonzero;stroke:none;stroke-width:3;stroke-linecap:butt;stroke-linejoin:round;stroke-miterlimit:2;stroke-dasharray:none;stroke-dashoffset:0;stroke-opacity:1"
     d="M 195.40625 59.46875 C 194.42991 59.619842 194.7564 63.186258 195.96875 70.0625 C 197.41709 78.277259 197.86608 95.241692 196.875 103.84375 C 196.38971 108.05584 195.32539 119.375 194.5 129 C 193.67462 138.625 191.87287 151.9 190.5 158.5 C 189.12713 165.1 188.00011 172.21973 188 174.3125 C 187.99982 177.46797 187.79206 178.08699 184.40625 179.78125 C 190.26352 176.89819 195.52901 174.2921 202.4375 174.5625 C 204.46241 174.64176 206.83355 174.97563 208.8125 175.25 L 203.25 174.5 L 204.5625 169.4375 C 207.19555 159.19375 209.19644 142.34998 208.90625 133 C 208.44681 118.19656 208.75046 115.05315 211.03125 111.1875 C 212.45809 108.76918 212.97376 106.6813 212.59375 104.78125 C 212.12864 102.45577 212.49195 101.74167 214.53125 100.8125 C 218.51005 98.999633 217.07113 95.088087 204.1875 72.25 C 199.26027 63.515781 196.51277 59.297512 195.40625 59.46875 z M 225.71875 103 C 223.66587 103 223.45084 103.40211 223.8125 106.5 C 224.09132 108.88824 223.75522 110.15751 222.78125 110.53125 C 221.86946 110.88115 221.30498 112.76118 221.1875 115.78125 L 221 120.5 L 222.84375 115.5 C 223.86131 112.75 225.46106 108.8125 226.375 106.75 C 228.02844 103.01867 228.01986 103 225.71875 103 z M 95.5625 160.9375 C 94.863505 160.9336 94.289597 160.97168 93.75 161.03125 C 94.277731 160.97517 94.884696 160.93431 95.5625 160.9375 z M 93.75 161.03125 C 93.500601 161.05878 93.248334 161.08327 93.03125 161.125 C 93.259498 161.08143 93.486134 161.05929 93.75 161.03125 z M 91.40625 161.75 C 91.288959 161.83692 91.185063 161.92945 91.09375 162.03125 C 91.192199 161.92079 91.277252 161.84302 91.40625 161.75 z M 90.59375 163.28125 C 90.585498 163.37233 90.562934 163.4656 90.5625 163.5625 C 90.56288 163.46912 90.586101 163.36921 90.59375 163.28125 z M 91.03125 165.8125 C 91.188008 166.28854 91.364071 166.78844 91.59375 167.34375 C 91.364562 166.78963 91.187845 166.28747 91.03125 165.8125 z M 210.21875 175.46875 C 212.53269 175.90223 214.58175 176.58027 216.3125 177.46875 C 214.58191 176.57917 212.53426 175.89152 210.21875 175.46875 z M 217.3125 178.03125 C 218.27399 178.61468 219.12707 179.27409 219.84375 180 C 219.12748 179.27132 218.27377 178.61616 217.3125 178.03125 z M 66.78125 214.34375 L 66.75 214.375 C 67.121309 214.71698 67.455888 214.9833 67.84375 215.34375 C 67.503082 215.02496 67.11478 214.65173 66.78125 214.34375 z M 203.71875 215.90625 L 196.625 216.5625 C 187.5949 217.40809 188.00823 216.61389 189.5625 229.5 C 190.29222 235.55 190.91111 241.0917 190.9375 241.8125 C 190.98707 243.16672 204.83745 242.5366 206.0625 241.125 C 206.24177 240.91844 206.1269 238.63234 205.875 235.5 L 205.59375 232.75 C 205.23268 229.3125 204.66617 224.5875 204.34375 222.25 L 203.78125 218 L 203.96875 218 L 203.71875 215.90625 z M 213.75 250.1875 C 213.65579 250.14043 213.4994 250.41432 213.28125 250.96875 C 212.00171 254.22062 208.16569 256.76837 202.15625 258.375 C 194.24337 260.49052 187.16067 264.0264 180.75 269.09375 C 159.89684 285.57722 141.93789 284.28922 146.375 266.625 C 148.28817 259.00863 148.34747 258 147 258 C 146.45 258 146 259.10446 146 260.4375 C 146 268.97523 142.93201 275.51306 138.25 277 C 116.37899 283.94593 98.996611 295.68412 103.65625 300.34375 C 104.84981 301.53731 109 301.0228 109 299.6875 C 109 298.97249 108.53678 297.94303 107.96875 297.375 C 104.65289 294.05914 121.43162 284.90781 134 283.1875 C 135.75502 282.94728 138.95281 281.31333 141.78125 279.1875 L 145.0625 276.71875 L 147.5 279 C 151.64293 282.89209 157.08063 283.32185 165.3125 279.9375 C 165.56012 279.00735 167.10215 278.37755 169.4375 278.03125 C 173.69379 275.88932 178.59319 272.93491 184.3125 269.0625 C 191.19915 264.3997 193.39233 263.3591 202.1875 260.5625 C 211.02159 257.75353 214.08504 255.32408 213.90625 251.28125 C 213.87624 250.60261 213.84421 250.23457 213.75 250.1875 z M 226.90625 259.375 C 227.33664 259.58982 227.7246 259.80946 228.125 260.03125 L 228.125 260 C 227.73616 259.78467 227.31828 259.58164 226.90625 259.375 z M 81.625 263 C 76.09112 263 73 266.02063 73 271.375 C 73 279.25672 81.975019 283.17909 87.6875 277.8125 C 93.255996 272.58118 89.326652 263 81.625 263 z M 55.6875 267.78125 C 51.784836 267.67328 46.47848 272.83521 47.4375 276.65625 C 47.879763 278.41838 46.855844 279.96909 42.59375 284 C 40.365854 286.10706 37.773725 288.92956 35.96875 291.125 L 35.21875 292.09375 C 34.793851 292.64922 34.442202 293.11879 34.09375 293.5625 C 32.856619 295.33782 32.099 296.39154 31.4375 296.625 L 34.375 300.65625 C 33.060467 297.62482 33.659691 295.9661 36.4375 292.78125 C 36.365192 292.86342 36.256927 292.95012 36.1875 293.03125 C 40.849904 286.68456 49.078753 280 52.78125 280 C 57.653036 280 61.316954 270.28737 57.25 268.15625 C 56.772041 267.9058 56.245023 267.79667 55.6875 267.78125 z M 101.5 276 C 98.819541 276 97 277.81954 97 280.5 C 97 283.18046 98.819541 285 101.5 285 C 102.655 285 104.1525 284.4725 104.8125 283.8125 C 107.6175 281.00751 105.49173 276 101.5 276 z M 190.3125 279.71875 C 190.97264 279.87475 191.63308 280.01276 192.28125 280.1875 C 191.63478 280.01325 190.97072 279.87431 190.3125 279.71875 z M 192.28125 280.1875 C 193.1576 280.42375 194.03169 280.66694 194.875 280.9375 C 194.03026 280.66648 193.15877 280.42402 192.28125 280.1875 z M 165.34375 280.625 C 165.3859 280.76099 165.4426 280.88781 165.53125 281.03125 C 165.4471 280.89509 165.38723 280.75278 165.34375 280.625 z M 73.5 286 C 70.819541 286 69 287.81954 69 290.5 C 69 293.18046 70.819541 295 73.5 295 C 74.655 295 76.1525 294.4725 76.8125 293.8125 C 79.617494 291.00751 77.491727 286 73.5 286 z M 32.8125 295.125 C 32.496888 295.47731 32.191568 295.76147 31.9375 295.96875 C 32.196882 295.7556 32.493263 295.48577 32.8125 295.125 z M 31.9375 295.96875 C 31.810466 296.07239 31.70965 296.15012 31.59375 296.21875 C 31.707006 296.15045 31.81456 296.06978 31.9375 295.96875 z M 31.59375 296.21875 C 31.47785 296.28738 31.3576 296.34054 31.25 296.375 L 31.28125 296.40625 C 31.385442 296.37047 31.482532 296.28582 31.59375 296.21875 z M 93.5 306 C 90.819541 306 89 307.81954 89 310.5 C 89 313.18046 90.819541 315 93.5 315 C 94.655 315 96.1525 314.4725 96.8125 313.8125 C 99.617494 311.00751 97.491727 306 93.5 306 z "
     id="path2350" />
  <path
     style="fill:#dd0000"
     d="M 95.5625,160.9375 C 90.140069,160.91199 89.682153,162.72195 91.59375,167.34375 C 93.434106,171.79332 92.945424,171.41581 112,182.4375 C 115.57146,184.50334 120.07146,186.45691 122,186.75 C 123.92854,187.04308 126.175,187.85448 127,188.5625 C 128.43876,189.79722 131.9849,191.22215 142.21875,194.6875 C 146.62564,196.17975 153,201.67256 153,203.96875 C 153,204.52293 154.1411,205.24484 155.53125,205.59375 C 158.04945,206.22578 165,213.73191 165,215.8125 C 165,216.41423 167.25,219.86675 170,223.5 C 178.17972,234.3069 174.4563,252 164,252 C 162.4494,252 160.9458,252.66401 160.625,253.5 C 160.30842,254.325 159.18369,255 158.09375,255 C 157.00382,255 155.72573,255.68116 155.25,256.53125 C 152.76763,260.967 146.9512,258.80547 138.28125,250.1875 C 128.03055,239.99826 123.14356,239.47765 124.21875,248.6875 C 124.62137,252.13618 122.82794,256 120.84375,256 C 119.84647,256 118.21028,250.35399 117.5,244.5 C 114.95818,223.55072 114.46778,222.11369 108.625,218.09375 C 102.68571,214.00741 101.43735,214.1568 95.3125,219.75 C 91.017024,223.67261 86.545045,226.93039 82.875,228.78125 C 82.52884,228.95583 77.627958,224.66746 72,219.28125 C 66.372042,213.89502 61.025885,209.09852 60.125,208.59375 C 57.695411,207.23244 44.793229,196.57852 42.59375,194.125 C 38.637965,189.71232 37.482207,190.82571 31.125,205.125 C 26.006595,216.63785 24.410056,242.76472 27.875,258 C 28.437886,260.475 29.339189,264.65879 29.90625,267.28125 C 30.47331,269.9037 32.652679,275.56492 34.75,279.875 L 38.5625,287.71875 L 35.96875,291.125 C 37.773725,288.92956 40.365854,286.10706 42.59375,284 C 46.855844,279.96909 47.879763,278.41838 47.4375,276.65625 C 46.341477,272.28935 53.426324,266.15261 57.25,268.15625 C 61.316954,270.28737 57.653036,280 52.78125,280 C 49.078753,280 40.849904,286.68456 36.1875,293.03125 C 36.644147,292.49764 37.162559,291.94636 37.75,291.3125 L 40.09375,288.8125 L 42.875,292.65625 C 48.545884,300.48008 63.719041,313 67.53125,313 C 67.761752,313 70.316215,314.09006 73.21875,315.40625 C 90.181028,323.09805 123.88165,321.43633 134.09375,312.40625 C 134.96206,311.63845 135.9475,311 136.3125,311 C 138.67439,311 166.44802,282.51463 165.53125,281.03125 C 165.2862,280.63475 165.22537,280.26259 165.3125,279.9375 C 157.08063,283.32185 151.64293,282.89209 147.5,279 L 145.0625,276.71875 L 141.78125,279.1875 C 138.95281,281.31333 135.75502,282.94728 134,283.1875 C 121.43162,284.90781 104.65289,294.05914 107.96875,297.375 C 108.53678,297.94303 109,298.97249 109,299.6875 C 109,301.0228 104.84981,301.53731 103.65625,300.34375 C 98.996611,295.68412 116.37899,283.94593 138.25,277 C 142.93201,275.51306 146,268.97523 146,260.4375 C 146,259.10446 146.45,258 147,258 C 148.34747,258 148.28817,259.00863 146.375,266.625 C 141.93789,284.28922 159.89684,285.57722 180.75,269.09375 C 187.16067,264.0264 194.24337,260.49052 202.15625,258.375 C 208.16569,256.76837 212.00171,254.22062 213.28125,250.96875 C 213.71756,249.85989 213.84623,249.92397 213.90625,251.28125 C 214.08504,255.32408 211.02159,257.75353 202.1875,260.5625 C 193.39233,263.3591 191.19915,264.3997 184.3125,269.0625 C 178.59319,272.93491 173.69379,275.88932 169.4375,278.03125 C 175.27187,277.17535 186.12473,278.13016 194.875,280.9375 C 198.38416,282.06333 202.348,283 203.6875,283 C 205.02701,283 206.88616,283.41114 207.8125,283.90625 C 210.24942,285.20871 224.44419,282.514 228.5625,279.96875 C 240.00559,272.89654 238.21519,263.87705 224.25,258.15625 C 212.87409,253.49615 213.69202,254.48873 214.21875,246.28125 L 214.6875,239 L 210.46875,239 L 206.25,239 L 205.875,235.375 C 206.13564,238.58452 206.2446,240.91517 206.0625,241.125 C 204.83745,242.5366 190.98707,243.16672 190.9375,241.8125 C 190.91111,241.0917 190.29222,235.55 189.5625,229.5 C 188.00823,216.61389 187.5949,217.40809 196.625,216.5625 L 203.71875,215.90625 L 203.96875,218 L 207.375,218 C 211.44319,218 212.37127,215.19234 209.53125,211.4375 C 205.84972,206.57008 207.48319,201.5608 214.3125,196.6875 C 222.78961,190.63834 223.33315,189.87141 222.53125,185.125 C 221.65495,179.93818 216.55315,176.32319 208.8125,175.25 C 206.83355,174.97563 204.46241,174.64176 202.4375,174.5625 C 194.8739,174.26646 189.31411,177.40235 182.75,180.59375 C 179.83947,181.91408 175.475,184.19117 173,185.53125 C 165.57919,189.54922 149.38512,186.4069 145,180.09375 C 141.30062,174.76783 117.44589,163.64561 106.28125,162.03125 C 101.52035,161.34284 98.027241,160.9491 95.5625,160.9375 z M 81.625,263 C 89.326652,263 93.255996,272.58118 87.6875,277.8125 C 81.975019,283.17909 73,279.25672 73,271.375 C 73,266.02063 76.09112,263 81.625,263 z M 101.5,276 C 105.49173,276 107.6175,281.00751 104.8125,283.8125 C 104.1525,284.4725 102.655,285 101.5,285 C 98.819541,285 97,283.18046 97,280.5 C 97,277.81954 98.819541,276 101.5,276 z M 73.5,286 C 77.491727,286 79.617494,291.00751 76.8125,293.8125 C 76.1525,294.4725 74.655,295 73.5,295 C 70.819541,295 69,293.18046 69,290.5 C 69,287.81954 70.819541,286 73.5,286 z M 34.34375,293.25 C 32.130331,296.1151 31.225448,297.02703 30.15625,296.15625 C 31.396522,297.37985 32.106405,296.47572 34.34375,293.25 z M 30.15625,296.15625 C 29.886933,295.93691 29.605821,295.55629 29.28125,295.125 C 29.60214,295.56234 29.899135,295.90259 30.15625,296.15625 z M 35.40625,302.6875 C 37.011071,306.14752 39.642579,309.84 42.03125,311.4375 C 40.528967,310.26901 38.192735,307.39421 36.46875,304.53125 C 36.060341,303.85302 35.726363,303.26087 35.40625,302.6875 z M 93.5,306 C 97.491727,306 99.617494,311.00751 96.8125,313.8125 C 96.1525,314.4725 94.655,315 93.5,315 C 90.819541,315 89,313.18046 89,310.5 C 89,307.81954 90.819541,306 93.5,306 z"
     id="path2563"
     sodipodi:nodetypes="csssssssssssssssssssssssssscccssssccccsssssccccsssssssssssssscssssscccccsssccccssssscsssccssccsssccssscccccscccsccsssc" />
</svg>
